<svg width="255" height="65" viewBox="0 0 255 65" fill="none" xmlns="http://www.w3.org/2000/svg">
<g filter="url(#filter0_d)">
<path d="M77.1337 43.24C74.4737 43.24 72.3437 42.74 70.7437 41.74C69.1437 40.72 68.3437 39.17 68.3437 37.09C68.3437 35.99 68.5337 35.15 68.9137 34.57C69.2937 33.99 69.8537 33.7 70.5937 33.7C71.1337 33.7 71.5737 33.84 71.9137 34.12C72.2537 34.4 72.4237 34.76 72.4237 35.2C72.4237 35.6 72.3937 35.95 72.3337 36.25C72.3337 36.33 72.3137 36.47 72.2737 36.67C72.2537 36.87 72.2437 37.08 72.2437 37.3C72.2437 38.2 72.6937 38.87 73.5937 39.31C74.5137 39.75 75.7937 39.97 77.4337 39.97C79.1337 39.97 80.4637 39.67 81.4237 39.07C82.3837 38.45 82.8637 37.59 82.8637 36.49C82.8637 35.81 82.6437 35.23 82.2037 34.75C81.7637 34.25 81.2137 33.84 80.5537 33.52C79.8937 33.18 78.9637 32.77 77.7637 32.29C76.2237 31.69 74.9637 31.12 73.9837 30.58C73.0237 30.04 72.1937 29.31 71.4937 28.39C70.8137 27.45 70.4737 26.29 70.4737 24.91C70.4737 23.47 70.8537 22.19 71.6137 21.07C72.3937 19.95 73.5037 19.08 74.9437 18.46C76.4037 17.84 78.1137 17.53 80.0737 17.53C81.5337 17.53 82.8737 17.75 84.0937 18.19C85.3137 18.61 86.2837 19.26 87.0037 20.14C87.7437 21.02 88.1137 22.1 88.1137 23.38C88.1137 24.64 87.9237 25.59 87.5437 26.23C87.1637 26.87 86.6037 27.19 85.8637 27.19C85.3437 27.19 84.9037 27.03 84.5437 26.71C84.2037 26.39 84.0337 26.01 84.0337 25.57C84.0337 25.19 84.0637 24.84 84.1237 24.52C84.1837 23.92 84.2137 23.54 84.2137 23.38C84.2137 22.54 83.8037 21.9 82.9837 21.46C82.1637 21.02 81.1437 20.8 79.9237 20.8C78.2037 20.8 76.8837 21.12 75.9637 21.76C75.0637 22.38 74.6137 23.26 74.6137 24.4C74.6137 25.16 74.8437 25.81 75.3037 26.35C75.7837 26.89 76.3737 27.34 77.0737 27.7C77.7737 28.06 78.7537 28.49 80.0137 28.99C81.5337 29.61 82.7537 30.17 83.6737 30.67C84.5937 31.17 85.3737 31.85 86.0137 32.71C86.6737 33.57 87.0037 34.63 87.0037 35.89C87.0037 38.25 86.1037 40.07 84.3037 41.35C82.5237 42.61 80.1337 43.24 77.1337 43.24ZM95.2945 43.15C93.3345 43.15 91.8045 42.6 90.7045 41.5C89.6245 40.38 89.0845 38.91 89.0845 37.09C89.0845 35.47 89.4045 34.05 90.0445 32.83C90.6845 31.61 91.5145 30.67 92.5345 30.01C93.5545 29.35 94.6245 29.02 95.7445 29.02C96.8445 29.02 97.6945 29.35 98.2945 30.01C98.9145 30.65 99.2245 31.48 99.2245 32.5C99.2245 33.34 99.0345 34.05 98.6545 34.63C98.2945 35.21 97.8145 35.5 97.2145 35.5C96.8345 35.5 96.5245 35.41 96.2845 35.23C96.0645 35.05 95.9545 34.8 95.9545 34.48C95.9545 34.34 95.9745 34.18 96.0145 34C96.0545 33.82 96.0845 33.69 96.1045 33.61C96.2045 33.31 96.2545 33.03 96.2545 32.77C96.2545 32.51 96.1845 32.31 96.0445 32.17C95.9245 32.03 95.7445 31.96 95.5045 31.96C95.0445 31.96 94.6145 32.17 94.2145 32.59C93.8145 32.99 93.4945 33.54 93.2545 34.24C93.0145 34.94 92.8945 35.71 92.8945 36.55C92.8945 38.87 93.9045 40.03 95.9245 40.03C96.7445 40.03 97.6245 39.76 98.5645 39.22C99.5245 38.66 100.465 37.83 101.385 36.73C101.625 36.45 101.895 36.31 102.195 36.31C102.455 36.31 102.655 36.43 102.795 36.67C102.955 36.91 103.035 37.24 103.035 37.66C103.035 38.42 102.845 39.04 102.465 39.52C101.525 40.68 100.395 41.58 99.0745 42.22C97.7745 42.84 96.5145 43.15 95.2945 43.15ZM104.006 43.15C102.766 43.15 101.776 42.7 101.036 41.8C100.296 40.9 99.9265 39.72 99.9265 38.26C99.9265 36.66 100.296 35.15 101.036 33.73C101.776 32.29 102.756 31.14 103.976 30.28C105.216 29.4 106.526 28.96 107.906 28.96C108.346 28.96 108.636 29.05 108.776 29.23C108.936 29.39 109.066 29.69 109.166 30.13C109.586 30.05 110.026 30.01 110.486 30.01C111.466 30.01 111.956 30.36 111.956 31.06C111.956 31.48 111.806 32.48 111.506 34.06C111.046 36.36 110.816 37.96 110.816 38.86C110.816 39.16 110.886 39.4 111.026 39.58C111.186 39.76 111.386 39.85 111.626 39.85C112.006 39.85 112.466 39.61 113.006 39.13C113.546 38.63 114.276 37.83 115.196 36.73C115.436 36.45 115.706 36.31 116.006 36.31C116.266 36.31 116.466 36.43 116.606 36.67C116.766 36.91 116.846 37.24 116.846 37.66C116.846 38.46 116.656 39.08 116.276 39.52C115.456 40.54 114.586 41.4 113.666 42.1C112.746 42.8 111.856 43.15 110.996 43.15C110.336 43.15 109.726 42.93 109.166 42.49C108.626 42.03 108.216 41.41 107.936 40.63C106.896 42.31 105.586 43.15 104.006 43.15ZM105.086 40.12C105.526 40.12 105.946 39.86 106.346 39.34C106.746 38.82 107.036 38.13 107.216 37.27L108.326 31.75C107.486 31.77 106.706 32.09 105.986 32.71C105.286 33.31 104.726 34.11 104.306 35.11C103.886 36.11 103.676 37.17 103.676 38.29C103.676 38.91 103.796 39.37 104.036 39.67C104.296 39.97 104.646 40.12 105.086 40.12ZM116.538 43.15C115.778 43.15 115.238 42.75 114.918 41.95C114.618 41.15 114.468 39.87 114.468 38.11C114.468 35.51 114.838 33.04 115.578 30.7C115.758 30.12 116.048 29.7 116.448 29.44C116.868 29.16 117.448 29.02 118.188 29.02C118.588 29.02 118.868 29.07 119.028 29.17C119.188 29.27 119.268 29.46 119.268 29.74C119.268 30.06 119.118 30.78 118.818 31.9C118.618 32.7 118.458 33.4 118.338 34C118.218 34.6 118.118 35.34 118.038 36.22C118.698 34.5 119.438 33.1 120.258 32.02C121.078 30.94 121.878 30.17 122.658 29.71C123.458 29.25 124.188 29.02 124.848 29.02C126.148 29.02 126.798 29.67 126.798 30.97C126.798 31.75 126.578 33.16 126.138 35.2C125.758 36.94 125.568 38.09 125.568 38.65C125.568 39.45 125.858 39.85 126.438 39.85C126.838 39.85 127.308 39.61 127.848 39.13C128.408 38.63 129.148 37.83 130.068 36.73C130.308 36.45 130.578 36.31 130.878 36.31C131.138 36.31 131.338 36.43 131.478 36.67C131.638 36.91 131.718 37.24 131.718 37.66C131.718 38.46 131.528 39.08 131.148 39.52C130.288 40.58 129.358 41.45 128.358 42.13C127.378 42.81 126.258 43.15 124.998 43.15C123.978 43.15 123.208 42.86 122.688 42.28C122.168 41.68 121.908 40.82 121.908 39.7C121.908 39.14 122.048 38.14 122.328 36.7C122.588 35.44 122.718 34.57 122.718 34.09C122.718 33.77 122.608 33.61 122.388 33.61C122.128 33.61 121.758 33.95 121.278 34.63C120.818 35.29 120.338 36.17 119.838 37.27C119.358 38.37 118.968 39.53 118.668 40.75C118.448 41.69 118.188 42.33 117.888 42.67C117.608 42.99 117.158 43.15 116.538 43.15ZM157.071 36.31C157.331 36.31 157.531 36.43 157.671 36.67C157.831 36.91 157.911 37.24 157.911 37.66C157.911 38.44 157.721 39.06 157.341 39.52C155.361 41.94 153.251 43.15 151.011 43.15C149.071 43.15 147.521 42.4 146.361 40.9C145.201 39.4 144.621 37.25 144.621 34.45C144.621 33.77 144.651 33.09 144.711 32.41C143.391 32.65 141.951 32.83 140.391 32.95C139.351 33.03 138.641 33.08 138.261 33.1C137.861 35.14 137.301 37.64 136.581 40.6C136.161 42.34 135.361 43.21 134.181 43.21C132.901 43.21 132.261 42.63 132.261 41.47C132.261 41.21 132.311 40.85 132.411 40.39C133.091 37.65 133.631 35.33 134.031 33.43L132.591 33.49C131.931 33.49 131.451 33.38 131.151 33.16C130.851 32.92 130.701 32.54 130.701 32.02C130.701 31.36 130.891 30.88 131.271 30.58C131.651 30.26 132.281 30.08 133.161 30.04L134.751 29.98C135.271 27.16 135.531 25.01 135.531 23.53C135.531 22.59 135.391 21.95 135.111 21.61C134.831 21.27 134.461 21.1 134.001 21.1C132.601 21.1 131.021 22.27 129.261 24.61C129.001 24.95 128.711 25.12 128.391 25.12C128.111 25.12 127.871 24.99 127.671 24.73C127.471 24.47 127.371 24.14 127.371 23.74C127.371 23.12 127.621 22.46 128.121 21.76C129.001 20.54 130.111 19.54 131.451 18.76C132.791 17.96 134.151 17.56 135.531 17.56C136.831 17.56 137.831 18.01 138.531 18.91C139.251 19.79 139.611 21.17 139.611 23.05C139.611 24.71 139.371 26.96 138.891 29.8L141.831 29.65C143.091 29.59 144.171 29.49 145.071 29.35C145.431 27.15 145.981 25.09 146.721 23.17C147.461 21.25 148.381 19.69 149.481 18.49C150.581 17.29 151.811 16.69 153.171 16.69C154.171 16.69 154.961 17.09 155.541 17.89C156.121 18.67 156.411 19.7 156.411 20.98C156.411 25.94 153.881 29.38 148.821 31.3C148.761 32.1 148.731 32.93 148.731 33.79C148.731 35.89 148.991 37.38 149.511 38.26C150.031 39.14 150.761 39.58 151.701 39.58C152.521 39.58 153.271 39.37 153.951 38.95C154.631 38.51 155.401 37.77 156.261 36.73C156.501 36.45 156.771 36.31 157.071 36.31ZM153.021 19.3C152.581 19.3 152.111 19.7 151.611 20.5C151.131 21.3 150.671 22.39 150.231 23.77C149.791 25.15 149.441 26.66 149.181 28.3C150.781 27.64 151.961 26.7 152.721 25.48C153.481 24.26 153.861 22.69 153.861 20.77C153.861 20.31 153.781 19.95 153.621 19.69C153.461 19.43 153.261 19.3 153.021 19.3ZM172.759 36.31C173.019 36.31 173.219 36.43 173.359 36.67C173.519 36.91 173.599 37.24 173.599 37.66C173.599 38.46 173.409 39.08 173.029 39.52C172.289 40.42 171.239 41.25 169.879 42.01C168.539 42.77 167.099 43.15 165.559 43.15C163.459 43.15 161.829 42.58 160.669 41.44C159.509 40.3 158.929 38.74 158.929 36.76C158.929 35.38 159.219 34.1 159.799 32.92C160.379 31.72 161.179 30.77 162.199 30.07C163.239 29.37 164.409 29.02 165.709 29.02C166.869 29.02 167.799 29.37 168.499 30.07C169.199 30.75 169.549 31.68 169.549 32.86C169.549 34.24 169.049 35.43 168.049 36.43C167.069 37.41 165.399 38.19 163.039 38.77C163.539 39.69 164.489 40.15 165.889 40.15C166.789 40.15 167.809 39.84 168.949 39.22C170.109 38.58 171.109 37.75 171.949 36.73C172.189 36.45 172.459 36.31 172.759 36.31ZM165.199 31.96C164.459 31.96 163.829 32.39 163.309 33.25C162.809 34.11 162.559 35.15 162.559 36.37V36.43C163.739 36.15 164.669 35.73 165.349 35.17C166.029 34.61 166.369 33.96 166.369 33.22C166.369 32.84 166.259 32.54 166.039 32.32C165.839 32.08 165.559 31.96 165.199 31.96ZM173.286 43.15C172.526 43.15 171.986 42.75 171.666 41.95C171.366 41.15 171.216 39.87 171.216 38.11C171.216 35.51 171.586 33.04 172.326 30.7C172.506 30.12 172.796 29.7 173.196 29.44C173.616 29.16 174.196 29.02 174.936 29.02C175.336 29.02 175.616 29.07 175.776 29.17C175.936 29.27 176.016 29.46 176.016 29.74C176.016 30.06 175.866 30.78 175.566 31.9C175.366 32.7 175.206 33.4 175.086 34C174.966 34.6 174.866 35.34 174.786 36.22C175.446 34.5 176.186 33.1 177.006 32.02C177.826 30.94 178.626 30.17 179.406 29.71C180.206 29.25 180.936 29.02 181.596 29.02C182.896 29.02 183.546 29.67 183.546 30.97C183.546 31.23 183.456 31.86 183.276 32.86C183.116 33.66 183.036 34.16 183.036 34.36C183.036 35.06 183.286 35.41 183.786 35.41C184.346 35.41 185.066 34.97 185.946 34.09C186.206 33.83 186.476 33.7 186.756 33.7C187.016 33.7 187.216 33.82 187.356 34.06C187.516 34.28 187.596 34.58 187.596 34.96C187.596 35.7 187.396 36.28 186.996 36.7C186.436 37.28 185.776 37.78 185.016 38.2C184.276 38.6 183.486 38.8 182.646 38.8C181.586 38.8 180.776 38.53 180.216 37.99C179.676 37.45 179.406 36.72 179.406 35.8C179.406 35.5 179.436 35.2 179.496 34.9C179.536 34.5 179.556 34.23 179.556 34.09C179.556 33.77 179.446 33.61 179.226 33.61C178.926 33.61 178.526 33.95 178.026 34.63C177.546 35.29 177.066 36.17 176.586 37.27C176.106 38.37 175.716 39.53 175.416 40.75C175.196 41.69 174.936 42.33 174.636 42.67C174.356 42.99 173.906 43.15 173.286 43.15ZM195.549 37.21C195.809 37.21 196.009 37.33 196.149 37.57C196.309 37.81 196.389 38.14 196.389 38.56C196.389 39.28 196.219 39.9 195.879 40.42C195.319 41.28 194.579 41.95 193.659 42.43C192.759 42.91 191.679 43.15 190.419 43.15C188.499 43.15 187.009 42.58 185.949 41.44C184.889 40.28 184.359 38.72 184.359 36.76C184.359 35.38 184.649 34.1 185.229 32.92C185.809 31.72 186.609 30.77 187.629 30.07C188.669 29.37 189.839 29.02 191.139 29.02C192.299 29.02 193.229 29.37 193.929 30.07C194.629 30.75 194.979 31.68 194.979 32.86C194.979 34.24 194.479 35.43 193.479 36.43C192.499 37.41 190.819 38.19 188.439 38.77C188.919 39.69 189.729 40.15 190.869 40.15C191.689 40.15 192.359 39.96 192.879 39.58C193.419 39.2 194.039 38.56 194.739 37.66C194.979 37.36 195.249 37.21 195.549 37.21ZM190.629 31.96C189.889 31.96 189.259 32.39 188.739 33.25C188.239 34.11 187.989 35.15 187.989 36.37V36.43C189.169 36.15 190.099 35.73 190.779 35.17C191.459 34.61 191.799 33.96 191.799 33.22C191.799 32.84 191.689 32.54 191.469 32.32C191.269 32.08 190.989 31.96 190.629 31.96ZM200.56 43.15C199.68 43.15 199.01 42.91 198.55 42.43C198.11 41.95 197.89 41.32 197.89 40.54C197.89 39.64 198.14 38.92 198.64 38.38C199.16 37.84 199.88 37.57 200.8 37.57C201.68 37.57 202.34 37.79 202.78 38.23C203.24 38.65 203.47 39.28 203.47 40.12C203.47 41.04 203.21 41.78 202.69 42.34C202.17 42.88 201.46 43.15 200.56 43.15ZM209.592 43.15C208.352 43.15 207.362 42.7 206.622 41.8C205.882 40.9 205.512 39.72 205.512 38.26C205.512 36.66 205.882 35.15 206.622 33.73C207.362 32.29 208.342 31.14 209.562 30.28C210.802 29.4 212.112 28.96 213.492 28.96C213.932 28.96 214.222 29.05 214.362 29.23C214.522 29.39 214.652 29.69 214.752 30.13C215.172 30.05 215.612 30.01 216.072 30.01C217.052 30.01 217.542 30.36 217.542 31.06C217.542 31.48 217.392 32.48 217.092 34.06C216.632 36.36 216.402 37.96 216.402 38.86C216.402 39.16 216.472 39.4 216.612 39.58C216.772 39.76 216.972 39.85 217.212 39.85C217.592 39.85 218.052 39.61 218.592 39.13C219.132 38.63 219.862 37.83 220.782 36.73C221.022 36.45 221.292 36.31 221.592 36.31C221.852 36.31 222.052 36.43 222.192 36.67C222.352 36.91 222.432 37.24 222.432 37.66C222.432 38.46 222.242 39.08 221.862 39.52C221.042 40.54 220.172 41.4 219.252 42.1C218.332 42.8 217.442 43.15 216.582 43.15C215.922 43.15 215.312 42.93 214.752 42.49C214.212 42.03 213.802 41.41 213.522 40.63C212.482 42.31 211.172 43.15 209.592 43.15ZM210.672 40.12C211.112 40.12 211.532 39.86 211.932 39.34C212.332 38.82 212.622 38.13 212.802 37.27L213.912 31.75C213.072 31.77 212.292 32.09 211.572 32.71C210.872 33.31 210.312 34.11 209.892 35.11C209.472 36.11 209.262 37.17 209.262 38.29C209.262 38.91 209.382 39.37 209.622 39.67C209.882 39.97 210.232 40.12 210.672 40.12ZM236.014 36.31C236.274 36.31 236.474 36.43 236.614 36.67C236.774 36.91 236.854 37.24 236.854 37.66C236.854 38.46 236.664 39.08 236.284 39.52C235.424 40.58 234.494 41.45 233.494 42.13C232.514 42.81 231.394 43.15 230.134 43.15C229.074 43.15 228.214 42.77 227.554 42.01C226.414 42.75 225.224 43.13 223.984 43.15C223.724 47.01 223.134 50.23 222.214 52.81C221.294 55.41 219.944 56.71 218.164 56.71C217.084 56.71 216.284 56.32 215.764 55.54C215.244 54.76 214.984 53.68 214.984 52.3C214.984 50.34 215.434 48.05 216.334 45.43C217.234 42.83 218.624 39.96 220.504 36.82C220.504 33.9 220.484 31.87 220.444 30.73C220.424 30.15 220.654 29.69 221.134 29.35C221.614 29.01 222.214 28.84 222.934 28.84C223.354 28.84 223.654 28.93 223.834 29.11C224.034 29.27 224.144 29.6 224.164 30.1C224.164 30.6 224.174 30.97 224.194 31.21C224.834 30.41 225.464 29.84 226.084 29.5C226.704 29.14 227.364 28.96 228.064 28.96C229.184 28.96 230.094 29.41 230.794 30.31C231.514 31.21 231.874 32.39 231.874 33.85C231.874 34.91 231.704 35.94 231.364 36.94C231.024 37.94 230.554 38.85 229.954 39.67C230.374 39.79 230.724 39.85 231.004 39.85C231.664 39.85 232.294 39.61 232.894 39.13C233.494 38.65 234.264 37.85 235.204 36.73C235.444 36.45 235.714 36.31 236.014 36.31ZM224.134 40.27C224.854 40.11 225.514 39.72 226.114 39.1C226.734 38.46 227.224 37.68 227.584 36.76C227.944 35.82 228.124 34.84 228.124 33.82C228.124 33.22 228.004 32.77 227.764 32.47C227.524 32.15 227.204 31.99 226.804 31.99C226.084 31.99 225.214 32.75 224.194 34.27C224.174 35.15 224.164 36.44 224.164 38.14C224.164 39.06 224.154 39.77 224.134 40.27ZM218.404 53.77C218.944 53.77 219.394 52.59 219.754 50.23C220.114 47.89 220.344 44.97 220.444 41.47C219.584 43.47 218.904 45.38 218.404 47.2C217.904 49.02 217.654 50.55 217.654 51.79C217.654 52.43 217.734 52.92 217.894 53.26C218.034 53.6 218.204 53.77 218.404 53.77ZM246.318 33.85C246.318 35.43 245.948 36.93 245.208 38.35C244.488 39.75 243.518 40.89 242.298 41.77C241.098 42.65 239.808 43.11 238.428 43.15C238.168 47.01 237.578 50.23 236.658 52.81C235.738 55.41 234.388 56.71 232.608 56.71C231.528 56.71 230.728 56.32 230.208 55.54C229.688 54.76 229.428 53.68 229.428 52.3C229.428 50.34 229.878 48.05 230.778 45.43C231.678 42.83 233.068 39.96 234.948 36.82C234.948 33.9 234.928 31.87 234.888 30.73C234.868 30.15 235.098 29.69 235.578 29.35C236.058 29.01 236.658 28.84 237.378 28.84C237.798 28.84 238.098 28.93 238.278 29.11C238.478 29.27 238.588 29.6 238.608 30.1C238.608 30.6 238.618 30.97 238.638 31.21C239.278 30.41 239.908 29.84 240.528 29.5C241.148 29.14 241.808 28.96 242.508 28.96C243.628 28.96 244.538 29.41 245.238 30.31C245.958 31.21 246.318 32.39 246.318 33.85ZM238.578 40.27C239.298 40.11 239.958 39.72 240.558 39.1C241.178 38.46 241.668 37.68 242.028 36.76C242.388 35.82 242.568 34.84 242.568 33.82C242.568 33.22 242.448 32.77 242.208 32.47C241.968 32.15 241.648 31.99 241.248 31.99C240.528 31.99 239.658 32.75 238.638 34.27C238.618 35.15 238.608 36.44 238.608 38.14C238.608 39.06 238.598 39.77 238.578 40.27ZM232.848 53.77C233.388 53.77 233.838 52.59 234.198 50.23C234.558 47.89 234.788 44.97 234.888 41.47C234.028 43.47 233.348 45.38 232.848 47.2C232.348 49.02 232.098 50.55 232.098 51.79C232.098 52.43 232.178 52.92 232.338 53.26C232.478 53.6 232.648 53.77 232.848 53.77Z" fill="#C4C1C1"/>
</g>
<path d="M58.6936 30C58.6936 45.7356 45.8949 58.5 30.0968 58.5C14.2987 58.5 1.5 45.7356 1.5 30C1.5 14.2644 14.2987 1.5 30.0968 1.5C45.8949 1.5 58.6936 14.2644 58.6936 30Z" stroke="url(#paint0_linear)" stroke-width="3"/>
<mask id="mask0" mask-type="alpha" maskUnits="userSpaceOnUse" x="13" y="12" width="36" height="35">
<rect x="34.1064" y="15" width="11.0419" height="11" stroke="black" stroke-width="2"/>
<rect x="36.6162" y="35.5" width="6.02258" height="6" stroke="black"/>
<rect x="16.0483" y="33" width="11.0419" height="11" stroke="black" stroke-width="2"/>
<rect x="16.0483" y="15" width="11.0419" height="11" stroke="black" stroke-width="2"/>
<rect x="38.1226" y="37" width="3.00968" height="3" fill="black"/>
<rect x="18.0581" y="17" width="7.02258" height="7" fill="black"/>
<rect x="36.1162" y="17" width="7.02258" height="7" fill="black"/>
<rect x="18.0581" y="35" width="7.02258" height="7" fill="black"/>
<rect x="47.1516" y="12" width="1.00323" height="5" fill="black"/>
<rect x="47.1516" y="42" width="1.00323" height="5" fill="black"/>
<rect x="45.1453" y="32" width="1.00323" height="9" fill="black"/>
<rect x="34.1096" y="33" width="1" height="12.0387" transform="rotate(-90 34.1096 33)" fill="black"/>
<rect x="33.1064" y="45" width="1" height="9.02903" transform="rotate(-90 33.1064 45)" fill="black"/>
<rect x="33.1064" y="32" width="1.00323" height="12" fill="black"/>
<rect x="13.042" y="47" width="1" height="5.01613" transform="rotate(-90 13.042 47)" fill="black"/>
<rect x="43.1387" y="47" width="1" height="5.01613" transform="rotate(-90 43.1387 47)" fill="black"/>
<rect x="43.1387" y="13" width="1" height="5.01613" transform="rotate(-90 43.1387 13)" fill="black"/>
<rect x="13.042" y="13" width="1" height="5.01613" transform="rotate(-90 13.042 13)" fill="black"/>
<rect x="13.042" y="42" width="1.00323" height="5" fill="black"/>
<rect x="13.042" y="12" width="1.00323" height="5" fill="black"/>
</mask>
<g mask="url(#mask0)">
<rect x="12.0388" y="11" width="37.1194" height="37" fill="url(#paint1_linear)"/>
</g>
<defs>
<filter id="filter0_d" x="68.3438" y="16.6899" width="185.974" height="48.02" filterUnits="userSpaceOnUse" color-interpolation-filters="sRGB">
<feFlood flood-opacity="0" result="BackgroundImageFix"/>
<feColorMatrix in="SourceAlpha" type="matrix" values="0 0 0 0 0 0 0 0 0 0 0 0 0 0 0 0 0 0 127 0"/>
<feOffset dx="4" dy="4"/>
<feGaussianBlur stdDeviation="2"/>
<feColorMatrix type="matrix" values="0 0 0 0 0 0 0 0 0 0 0 0 0 0 0 0 0 0 0.8 0"/>
<feBlend mode="normal" in2="BackgroundImageFix" result="effect1_dropShadow"/>
<feBlend mode="normal" in="SourceGraphic" in2="effect1_dropShadow" result="shape"/>
</filter>
<linearGradient id="paint0_linear" x1="30.0968" y1="0" x2="30.0968" y2="60" gradientUnits="userSpaceOnUse">
<stop offset="0.223958" stop-color="#4374ED"/>
<stop offset="0.822917" stop-color="#9226C5"/>
</linearGradient>
<linearGradient id="paint1_linear" x1="30.5985" y1="11" x2="30.5985" y2="48" gradientUnits="userSpaceOnUse">
<stop offset="0.223958" stop-color="#4374ED"/>
<stop offset="0.822917" stop-color="#9226C5"/>
</linearGradient>
</defs>
</svg>
